<svg width="1196" height="790" viewBox="0 0 1196 790" fill="none" xmlns="http://www.w3.org/2000/svg">
<g clip-path="url(#clip0)">
<path d="M349.5 397L533.53 715.75H165.47L349.5 397Z" fill="#F9F7D9"/>
<circle cx="980.5" cy="492.5" r="215.5" fill="#FCE2CE"/>
<rect x="260" y="95" width="302" height="302" fill="#CFFFFE"/>
<path d="M300.8 176.8C318.4 176.8 334.4 181.333 348.8 190.4C363.2 199.467 374.4 212.133 382.4 228.4C390.667 244.4 394.8 262.533 394.8 282.8C394.8 302.8 390.667 321.067 382.4 337.6C374.4 353.867 363.2 366.667 348.8 376C334.667 385.333 318.8 390 301.2 390C286 390 271.867 386.267 258.8 378.8C246 371.067 235.6 360.933 227.6 348.4V374.8C227.6 378.267 226.4 381.2 224 383.6C221.867 386 219.067 387.2 215.6 387.2C212.133 387.2 209.2 386 206.8 383.6C204.667 381.2 203.6 378.267 203.6 374.8V102.4C203.6 98.9333 204.667 96.1333 206.8 94C209.2 91.6 212.133 90.4 215.6 90.4C219.067 90.4 221.867 91.6 224 94C226.4 96.1333 227.6 98.9333 227.6 102.4V220.4C234.8 207.333 244.933 196.8 258 188.8C271.067 180.8 285.333 176.8 300.8 176.8ZM298.8 367.6C312.667 367.6 325.067 363.867 336 356.4C347.2 348.933 355.867 338.8 362 326C368.4 312.933 371.6 298.533 371.6 282.8C371.6 266.8 368.4 252.533 362 240C355.867 227.2 347.2 217.2 336 210C325.067 202.8 312.667 199.2 298.8 199.2C284.667 199.2 272 202.8 260.8 210C249.6 216.933 240.933 226.8 234.8 239.6C228.667 252.4 225.6 266.8 225.6 282.8C225.6 298.8 228.667 313.333 234.8 326.4C241.2 339.2 249.867 349.333 260.8 356.8C272 364 284.667 367.6 298.8 367.6ZM610.225 181.6C613.692 181.6 616.492 182.8 618.625 185.2C621.025 187.6 622.225 190.533 622.225 194V374C622.225 377.467 621.025 380.4 618.625 382.8C616.492 384.933 613.692 386 610.225 386C606.758 386 603.825 384.933 601.425 382.8C599.292 380.4 598.225 377.467 598.225 374V347.2C591.558 359.2 581.558 369.333 568.225 377.6C554.892 385.867 540.358 390 524.625 390C506.758 390 490.625 385.333 476.225 376C462.092 366.667 450.892 353.867 442.625 337.6C434.625 321.333 430.625 303.067 430.625 282.8C430.625 262.533 434.758 244.4 443.025 228.4C451.292 212.133 462.492 199.467 476.625 190.4C491.025 181.333 506.892 176.8 524.225 176.8C540.225 176.8 554.892 180.667 568.225 188.4C581.558 196.133 591.558 206.267 598.225 218.8V194C598.225 190.533 599.292 187.6 601.425 185.2C603.825 182.8 606.758 181.6 610.225 181.6ZM527.025 367.6C540.892 367.6 553.292 364 564.225 356.8C575.425 349.333 584.092 339.2 590.225 326.4C596.625 313.333 599.825 298.8 599.825 282.8C599.825 267.333 596.625 253.2 590.225 240.4C584.092 227.6 575.425 217.6 564.225 210.4C553.292 202.933 540.892 199.2 527.025 199.2C513.158 199.2 500.625 202.8 489.425 210C478.492 217.2 469.825 227.2 463.425 240C457.292 252.533 454.225 266.8 454.225 282.8C454.225 298.8 457.292 313.333 463.425 326.4C469.558 339.2 478.092 349.333 489.025 356.8C500.225 364 512.892 367.6 527.025 367.6ZM781.25 176.8C806.05 176.8 824.183 184.133 835.65 198.8C847.383 213.2 853.25 232.4 853.25 256.4V374C853.25 377.467 852.05 380.4 849.65 382.8C847.25 384.933 844.45 386 841.25 386C837.783 386 834.85 384.933 832.45 382.8C830.317 380.4 829.25 377.467 829.25 374V257.6C829.25 240.267 824.85 226.267 816.05 215.6C807.517 204.667 794.183 199.2 776.05 199.2C764.583 199.2 753.65 201.867 743.25 207.2C733.117 212.533 724.85 219.733 718.45 228.8C712.05 237.6 708.85 247.2 708.85 257.6V374C708.85 377.467 707.65 380.4 705.25 382.8C703.117 384.933 700.317 386 696.85 386C693.383 386 690.45 384.933 688.05 382.8C685.917 380.4 684.85 377.467 684.85 374V194.8C684.85 191.333 685.917 188.533 688.05 186.4C690.45 184 693.383 182.8 696.85 182.8C700.317 182.8 703.117 184 705.25 186.4C707.65 188.533 708.85 191.333 708.85 194.8V216.8C716.05 205.333 726.317 195.867 739.65 188.4C753.25 180.667 767.117 176.8 781.25 176.8ZM1088.9 181.6C1092.37 181.6 1095.17 182.8 1097.3 185.2C1099.7 187.333 1100.9 190.267 1100.9 194V367.2C1100.9 388 1096.5 405.733 1087.7 420.4C1079.17 435.333 1067.3 446.667 1052.1 454.4C1037.17 462.133 1019.97 466 1000.5 466C991.167 466 981.3 464.8 970.9 462.4C960.767 460 951.967 456.933 944.5 453.2C937.3 449.467 933.167 445.6 932.1 441.6C930.233 439.733 929.3 437.6 929.3 435.2C929.3 432.533 930.5 430.4 932.9 428.8C933.967 428 935.3 427.6 936.9 427.6C938.5 427.6 941.567 428.533 946.1 430.4L954.5 434C971.033 440.4 986.5 443.6 1000.9 443.6C1024.63 443.6 1043.17 436.8 1056.5 423.2C1070.1 409.867 1076.9 391.733 1076.9 368.8V344C1070.23 358.4 1059.7 369.733 1045.3 378C1030.9 386 1015.83 390 1000.1 390C981.7 390 965.033 385.467 950.1 376.4C935.433 367.067 923.833 354.267 915.3 338C906.767 321.733 902.5 303.467 902.5 283.2C902.5 263.2 906.767 245.067 915.3 228.8C923.833 212.533 935.433 199.867 950.1 190.8C965.033 181.467 981.567 176.8 999.7 176.8C1016.5 176.8 1031.83 181.067 1045.7 189.6C1059.83 197.867 1070.23 207.867 1076.9 219.6V194C1076.9 190.533 1077.97 187.6 1080.1 185.2C1082.5 182.8 1085.43 181.6 1088.9 181.6ZM1002.1 367.6C1016.77 367.6 1029.83 364.133 1041.3 357.2C1053.03 350 1062.1 340 1068.5 327.2C1075.17 314.133 1078.5 299.467 1078.5 283.2C1078.5 266.933 1075.17 252.4 1068.5 239.6C1062.1 226.8 1053.03 216.933 1041.3 210C1029.83 202.8 1016.77 199.2 1002.1 199.2C987.7 199.2 974.633 202.933 962.9 210.4C951.433 217.6 942.367 227.6 935.7 240.4C929.3 253.2 926.1 267.467 926.1 283.2C926.1 299.2 929.3 313.6 935.7 326.4C942.367 339.2 951.433 349.333 962.9 356.8C974.633 364 987.7 367.6 1002.1 367.6ZM369.6 503.6C373.067 503.6 375.867 504.8 378 507.2C380.4 509.6 381.6 512.533 381.6 516V696C381.6 699.467 380.4 702.4 378 704.8C375.867 706.933 373.067 708 369.6 708C366.133 708 363.2 706.933 360.8 704.8C358.667 702.4 357.6 699.467 357.6 696V669.2C350.933 681.2 340.933 691.333 327.6 699.6C314.267 707.867 299.733 712 284 712C266.133 712 250 707.333 235.6 698C221.467 688.667 210.267 675.867 202 659.6C194 643.333 190 625.067 190 604.8C190 584.533 194.133 566.4 202.4 550.4C210.667 534.133 221.867 521.467 236 512.4C250.4 503.333 266.267 498.8 283.6 498.8C299.6 498.8 314.267 502.667 327.6 510.4C340.933 518.133 350.933 528.267 357.6 540.8V516C357.6 512.533 358.667 509.6 360.8 507.2C363.2 504.8 366.133 503.6 369.6 503.6ZM286.4 689.6C300.267 689.6 312.667 686 323.6 678.8C334.8 671.333 343.467 661.2 349.6 648.4C356 635.333 359.2 620.8 359.2 604.8C359.2 589.333 356 575.2 349.6 562.4C343.467 549.6 334.8 539.6 323.6 532.4C312.667 524.933 300.267 521.2 286.4 521.2C272.533 521.2 260 524.8 248.8 532C237.867 539.2 229.2 549.2 222.8 562C216.667 574.533 213.6 588.8 213.6 604.8C213.6 620.8 216.667 635.333 222.8 648.4C228.933 661.2 237.467 671.333 248.4 678.8C259.6 686 272.267 689.6 286.4 689.6ZM572.225 685.6C575.692 685.6 578.492 686.667 580.625 688.8C582.758 690.933 583.825 693.6 583.825 696.8C583.825 700 582.758 702.667 580.625 704.8C578.492 706.933 575.692 708 572.225 708H442.225C438.758 708 435.958 706.8 433.825 704.4C431.692 701.733 430.625 699.067 430.625 696.4C430.625 692.933 431.825 689.867 434.225 687.2L552.625 523.2H452.225C449.025 523.2 446.225 522.133 443.825 520C441.692 517.867 440.625 515.2 440.625 512C440.625 508.8 441.692 506.133 443.825 504C446.225 501.867 449.025 500.8 452.225 500.8H575.025C578.225 500.8 580.892 502 583.025 504.4C585.158 506.8 586.225 509.6 586.225 512.8C586.225 515.733 585.158 518.667 583.025 521.6L464.225 685.6H572.225ZM820.525 605.6C820.525 625.6 816.125 643.733 807.325 660C798.525 676.267 786.392 689.067 770.925 698.4C755.458 707.467 738.258 712 719.325 712C700.392 712 683.192 707.467 667.725 698.4C652.258 689.067 640.125 676.267 631.325 660C622.525 643.733 618.125 625.6 618.125 605.6C618.125 585.6 622.525 567.467 631.325 551.2C640.125 534.933 652.258 522.133 667.725 512.8C683.192 503.467 700.392 498.8 719.325 498.8C738.258 498.8 755.458 503.467 770.925 512.8C786.392 522.133 798.525 534.933 807.325 551.2C816.125 567.467 820.525 585.6 820.525 605.6ZM796.525 605.6C796.525 589.6 793.192 575.2 786.525 562.4C779.858 549.6 770.525 539.6 758.525 532.4C746.792 524.933 733.725 521.2 719.325 521.2C704.925 521.2 691.858 524.933 680.125 532.4C668.392 539.6 659.058 549.6 652.125 562.4C645.458 575.2 642.125 589.6 642.125 605.6C642.125 621.333 645.458 635.6 652.125 648.4C659.058 661.2 668.392 671.333 680.125 678.8C691.858 686 704.925 689.6 719.325 689.6C733.725 689.6 746.792 686 758.525 678.8C770.525 671.6 779.858 661.6 786.525 648.8C793.192 636 796.525 621.6 796.525 605.6ZM966.016 498.8C990.816 498.8 1008.95 506.133 1020.42 520.8C1032.15 535.2 1038.02 554.4 1038.02 578.4V696C1038.02 699.467 1036.82 702.4 1034.42 704.8C1032.02 706.933 1029.22 708 1026.02 708C1022.55 708 1019.62 706.933 1017.22 704.8C1015.08 702.4 1014.02 699.467 1014.02 696V579.6C1014.02 562.267 1009.62 548.267 1000.82 537.6C992.282 526.667 978.949 521.2 960.816 521.2C949.349 521.2 938.416 523.867 928.016 529.2C917.882 534.533 909.616 541.733 903.216 550.8C896.816 559.6 893.616 569.2 893.616 579.6V696C893.616 699.467 892.416 702.4 890.016 704.8C887.882 706.933 885.082 708 881.616 708C878.149 708 875.216 706.933 872.816 704.8C870.682 702.4 869.616 699.467 869.616 696V516.8C869.616 513.333 870.682 510.533 872.816 508.4C875.216 506 878.149 504.8 881.616 504.8C885.082 504.8 887.882 506 890.016 508.4C892.416 510.533 893.616 513.333 893.616 516.8V538.8C900.816 527.333 911.082 517.867 924.416 510.4C938.016 502.667 951.882 498.8 966.016 498.8Z" fill="#2B2B2B"/>
<path d="M656.4 763C656.4 757.667 659.067 755 664.4 755C669.733 755 672.4 757.667 672.4 763C672.4 768.333 669.733 771 664.4 771C659.067 771 656.4 768.333 656.4 763ZM685.2 763C685.2 757.667 687.867 755 693.2 755C698.533 755 701.2 757.667 701.2 763C701.2 768.333 698.533 771 693.2 771C687.867 771 685.2 768.333 685.2 763ZM714 763C714 757.667 716.667 755 722 755C727.333 755 730 757.667 730 763C730 768.333 727.333 771 722 771C716.667 771 714 768.333 714 763ZM742.8 763C742.8 757.667 745.467 755 750.8 755C756.133 755 758.8 757.667 758.8 763C758.8 768.333 756.133 771 750.8 771C745.467 771 742.8 768.333 742.8 763ZM771.6 763C771.6 757.667 774.267 755 779.6 755C784.933 755 787.6 757.667 787.6 763C787.6 768.333 784.933 771 779.6 771C774.267 771 771.6 768.333 771.6 763ZM800.4 763C800.4 757.667 803.067 755 808.4 755C813.733 755 816.4 757.667 816.4 763C816.4 768.333 813.733 771 808.4 771C803.067 771 800.4 768.333 800.4 763ZM829.2 763C829.2 757.667 831.867 755 837.2 755C842.533 755 845.2 757.667 845.2 763C845.2 768.333 842.533 771 837.2 771C831.867 771 829.2 768.333 829.2 763ZM858 763C858 757.667 860.667 755 866 755C871.333 755 874 757.667 874 763C874 768.333 871.333 771 866 771C860.667 771 858 768.333 858 763ZM886.8 763C886.8 757.667 889.467 755 894.8 755C900.133 755 902.8 757.667 902.8 763C902.8 768.333 900.133 771 894.8 771C889.467 771 886.8 768.333 886.8 763ZM915.6 763C915.6 757.667 918.267 755 923.6 755C928.933 755 931.6 757.667 931.6 763C931.6 768.333 928.933 771 923.6 771C918.267 771 915.6 768.333 915.6 763ZM944.4 763C944.4 757.667 947.067 755 952.4 755C957.733 755 960.4 757.667 960.4 763C960.4 768.333 957.733 771 952.4 771C947.067 771 944.4 768.333 944.4 763ZM973.2 763C973.2 757.667 975.867 755 981.2 755C986.533 755 989.2 757.667 989.2 763C989.2 768.333 986.533 771 981.2 771C975.867 771 973.2 768.333 973.2 763ZM1002 763C1002 757.667 1004.67 755 1010 755C1015.33 755 1018 757.667 1018 763C1018 768.333 1015.33 771 1010 771C1004.67 771 1002 768.333 1002 763ZM1030.8 763C1030.8 757.667 1033.47 755 1038.8 755C1044.13 755 1046.8 757.667 1046.8 763C1046.8 768.333 1044.13 771 1038.8 771C1033.47 771 1030.8 768.333 1030.8 763ZM481.2 763C481.2 757.667 483.867 755 489.2 755C494.533 755 497.2 757.667 497.2 763C497.2 768.333 494.533 771 489.2 771C483.867 771 481.2 768.333 481.2 763ZM507.6 763C507.6 757.667 510.267 755 515.6 755C520.933 755 523.6 757.667 523.6 763C523.6 768.333 520.933 771 515.6 771C510.267 771 507.6 768.333 507.6 763ZM534 763C534 757.667 536.667 755 542 755C547.333 755 550 757.667 550 763C550 768.333 547.333 771 542 771C536.667 771 534 768.333 534 763Z" fill="black"/>
<path d="M303.4 27.8C307.133 21.9333 311.933 16.0667 317.8 10.2C324.2 4.33332 330.6 1.39999 337 1.39999C343.4 1.39999 348.2 3.53331 351.4 7.79995C351.4 10.4666 309.533 76.0667 225.8 204.6C142.6 333.133 92.7333 410.467 76.2 436.6C70.3333 446.2 64.7333 451 59.4 451C55.1333 451 53 448.067 53 442.2C53.5333 439 94.3333 370.467 175.4 236.6C257 102.733 299.667 33.1333 303.4 27.8ZM31.4 480.6C36.7333 480.6 41 482.2 44.2 485.4C47.4 488.6 49 493.4 49 499.8C49 506.2 45.5333 513.667 38.6 522.2C31.6667 530.733 25.2667 535 19.4 535C13.5333 535 9 533.133 5.8 529.4C2.6 526.2 1 522.467 1 518.2C1 513.4 4.73334 505.933 12.2 495.8C19.6667 485.667 26.0667 480.6 31.4 480.6Z" fill="black"/>
</g>
<defs>
<clipPath id="clip0">
<rect width="1196" height="790" fill="white"/>
</clipPath>
</defs>
</svg>
